<svg height="511pt" viewBox="1 0 511.99975 511" width="511pt" xmlns="http://www.w3.org/2000/svg"><path d="m451.933594 15.496094v271.960937c0 8.398438-6.597656 14.996094-15 14.996094h-421.9375c-8.398438 0-14.996094-6.597656-14.996094-14.996094v-271.960937c0-8.398438 6.597656-14.996094 14.996094-14.996094h421.9375c8.402344 0 15 6.597656 15 14.996094zm0 0" fill="#deecf1"/><path d="m451.933594 15.496094v271.960937c0 8.398438-6.597656 14.996094-15 14.996094h-209.96875v-301.953125h209.96875c8.402344 0 15 6.597656 15 14.996094zm0 0" fill="#c6e2e7"/><path d="m376.945312 92.484375h-119.984374c-8.289063 0-14.996094-6.707031-14.996094-14.996094 0-8.289062 6.707031-14.996093 14.996094-14.996093h119.984374c8.289063 0 14.996094 6.707031 14.996094 14.996093 0 8.289063-6.707031 14.996094-14.996094 14.996094zm0 0" fill="#00c0f1"/><path d="m376.945312 152.476562h-119.984374c-8.289063 0-14.996094-6.707031-14.996094-14.996093 0-8.289063 6.707031-15 14.996094-15h119.984374c8.289063 0 14.996094 6.710937 14.996094 15 0 8.289062-6.707031 14.996093-14.996094 14.996093zm0 0" fill="#00c0f1"/><path d="m136.980469 122.480469c-41.394531 0-74.988281 33.597656-74.988281 74.988281 0 8.402344 6.597656 15 14.996093 15h119.984375c8.398438 0 14.996094-6.597656 14.996094-15 0-41.390625-33.59375-74.988281-74.988281-74.988281zm0 0" fill="#ff6c6c"/><path d="m181.972656 107.484375c0 24.898437-20.09375 44.992187-44.992187 44.992187-24.898438 0-44.992188-20.09375-44.992188-44.992187s20.09375-44.992187 44.992188-44.992187c24.898437 0 44.992187 20.09375 44.992187 44.992187zm0 0" fill="#ff6c6c"/><path d="m402.4375 402.9375c-5.699219 6-15.292969 6-20.992188 0l-41.394531-41.390625c-6-5.699219-6-15.296875 0-20.996094 5.699219-6 15.296875-6 20.996094 0l41.390625 41.390625c6 5.703125 6 15.296875 0 20.996094zm0 0" fill="#c6e2e7"/><path d="m402.4375 402.9375c-5.699219 6-15.292969 6-20.992188 0l-41.394531-41.390625c-6-5.699219-6-15.296875 0-20.996094zm0 0" fill="#8ebac5"/><path d="m498.726562 435.636719-74.988281-74.992188c-5.699219-5.996093-15.300781-5.996093-21.300781 0l-20.992188 21.300781-21.296874 20.992188c-6 6-6 15.601562 0 21.300781l74.988281 74.988281c17.398437 17.699219 46.191406 17.398438 63.589843 0 17.699219-17.398437 17.699219-46.191406 0-63.589843zm0 0" fill="#6e6e6e"/><path d="m498.726562 499.226562c-17.398437 17.398438-46.191406 17.699219-63.589843 0l-74.988281-74.988281c-6-5.699219-6-15.300781 0-21.300781l21.296874-20.996094zm0 0" fill="#444"/><path d="m361.046875 361.546875c-40.796875 41.09375-107.382813 41.09375-148.175781 0-41.097656-40.796875-41.097656-107.382813 0-148.175781 40.792968-41.097656 107.382812-41.097656 148.175781 0 41.09375 40.792968 41.09375 107.382812 0 148.175781zm0 0" fill="#5a5a5a"/><path d="m361.046875 361.546875c-40.796875 41.09375-107.382813 41.09375-148.175781 0-41.097656-40.796875-41.097656-107.382813 0-148.175781zm0 0" fill="#444"/><path d="m340.050781 340.550781c-29.398437 29.09375-76.789062 29.09375-106.183593 0-29.097657-29.398437-29.097657-76.789062 0-106.1875 29.394531-29.09375 76.785156-29.09375 106.183593 0 29.09375 29.398438 29.09375 76.789063 0 106.1875zm0 0" fill="#deecf1"/><path d="m340.050781 340.550781c-29.398437 29.09375-76.789062 29.09375-106.183593 0-29.097657-29.398437-29.097657-76.789062 0-106.1875zm0 0" fill="#c6e2e7"/></svg>