<?xml version="1.0" encoding="iso-8859-1"?>
<!-- Generator: Adobe Illustrator 19.0.0, SVG Export Plug-In . SVG Version: 6.00 Build 0)  -->
<svg version="1.1" id="Layer_1" xmlns="http://www.w3.org/2000/svg" xmlns:xlink="http://www.w3.org/1999/xlink" x="0px" y="0px"
	 viewBox="0 0 512 512" style="enable-background:new 0 0 512 512;" xml:space="preserve">
<path style="fill:#F8F8F9;" d="M458.105,202.105C458.105,90.488,367.62,0,256,0C144.381,0,53.895,90.488,53.895,202.105
	c0,23.858,4.134,46.75,11.725,68h1.749v53.263h377.263v-53.266h1.749C453.972,248.854,458.105,225.962,458.105,202.105z"/>
<path style="fill:#EDEDED;" d="M256,0v323.368h188.632v-53.266h1.749c7.591-21.249,11.725-44.141,11.725-67.998
	C458.105,90.488,367.62,0,256,0z"/>
<path style="fill:#EFC27B;" d="M485.053,309.895c0-22.323-18.098-40.421-40.421-40.421c-13.808,0-25.991,6.928-33.283,17.492
	c-34.028-10.565-90.91-17.492-155.349-17.492s-121.321,6.927-155.349,17.492c-7.292-10.563-19.475-17.492-33.283-17.492
	c-22.323,0-40.421,18.098-40.421,40.421c0,22.323,18.098,40.421,40.421,40.421H89.6c-8.758,26.947-17.516,53.895-26.274,80.842
	C47.561,475.806,81.04,512,138.105,512c78.596,0,157.192,0,235.789,0c57.064,0,90.544-36.193,74.779-80.842
	c-8.758-26.947-17.516-53.895-26.274-80.842h22.232C466.955,350.316,485.053,332.218,485.053,309.895z"/>
<path style="fill:#ECB45C;" d="M485.053,309.895c0-22.323-18.098-40.421-40.421-40.421c-13.808,0-25.991,6.928-33.283,17.492
	c-34.028-10.565-90.91-17.492-155.349-17.492V512c39.297,0,78.596,0,117.895,0c57.064,0,90.544-36.193,74.779-80.842
	c-8.758-26.947-17.516-53.895-26.274-80.842h22.232C466.955,350.316,485.053,332.218,485.053,309.895z"/>
<path style="fill:#58575D;" d="M181.895,208.842h-0.003c-14.857,0-26.945-12.089-26.945-26.947
	c0.005-14.861,12.094-26.947,26.947-26.947c14.859,0,26.947,12.089,26.947,26.947S196.754,208.842,181.895,208.842z"/>
<path style="fill:#454449;" d="M330.105,208.842h-0.003c-14.857,0-26.945-12.089-26.945-26.947
	c0.005-14.861,12.094-26.947,26.947-26.947c14.859,0,26.947,12.089,26.947,26.947S344.964,208.842,330.105,208.842z"/>
<path style="fill:#A58868;" d="M235.789,377.266h-40.421c0-10.302-3.258-20.081-9.419-28.284l32.318-24.28
	C229.73,339.963,235.789,358.139,235.789,377.266z"/>
<path style="fill:#947859;" d="M316.632,377.266h-40.421c0-19.127,6.059-37.303,17.523-52.564l32.318,24.28
	C319.888,357.185,316.632,366.964,316.632,377.266z"/>
<g>
</g>
<g>
</g>
<g>
</g>
<g>
</g>
<g>
</g>
<g>
</g>
<g>
</g>
<g>
</g>
<g>
</g>
<g>
</g>
<g>
</g>
<g>
</g>
<g>
</g>
<g>
</g>
<g>
</g>
</svg>
